<?xml version="1.0" encoding="UTF-8"?> <svg xmlns="http://www.w3.org/2000/svg" width="26.813" height="48.919" viewBox="0 0 26.813 48.919"><defs><style>.a{fill:#a97e63;}</style></defs><g transform="translate(-46.848 15.748)"><g transform="translate(46.848)"><path class="a" d="M148.988,97.4a6.939,6.939,0,1,0,6.936,6.942A6.944,6.944,0,0,0,148.988,97.4Zm0,12.215a5.273,5.273,0,1,1,5.273-5.273A5.278,5.278,0,0,1,148.988,109.615Z" transform="translate(-135.591 -90.79)"></path><path class="a" d="M60.245,0c-.156,0-.319,0-.475.007A13.393,13.393,0,0,0,47.086,15.914a4.248,4.248,0,0,0,.1.448,12.81,12.81,0,0,0,.9,2.633c1.378,3.264,4.4,8.293,10.953,13.735a1.931,1.931,0,0,0,2.457,0c6.549-5.436,9.569-10.471,10.94-13.708a13.158,13.158,0,0,0,.9-2.653c.041-.163.068-.3.088-.428A13.394,13.394,0,0,0,60.245,0ZM71.768,15.656c0,.014-.02.129-.068.339a12.208,12.208,0,0,1-.8,2.355c-1.31,3.095-4.187,7.879-10.478,13.1a.274.274,0,0,1-.17.061.288.288,0,0,1-.17-.061c-6.291-5.225-9.175-10.01-10.492-13.125a11.689,11.689,0,0,1-.794-2.334c-.041-.176-.061-.285-.068-.319,0-.014-.007-.027-.007-.041a11.952,11.952,0,0,1-.156-3.373A11.738,11.738,0,0,1,71.985,13.4,12.176,12.176,0,0,1,71.768,15.656Z" transform="translate(-46.848)"></path></g><path class="a" d="M6.384,7.625a.911.911,0,0,0,.225.029A.888.888,0,0,0,7.466,7,5.559,5.559,0,0,0,.658.188a.888.888,0,0,0,.23,1.745.878.878,0,0,0,.229-.03,3.824,3.824,0,0,1,1.961,0A3.785,3.785,0,0,1,5.751,4.577a3.8,3.8,0,0,1,0,1.959A.89.89,0,0,0,6.384,7.625Z" transform="translate(54.495 -4.705) rotate(-45)"></path><path class="a" d="M10.226,3.309A10.934,10.934,0,0,0,5.721.579,9.927,9.927,0,0,0,.646.359.78.78,0,0,0,.089,1.375a.947.947,0,0,0,1.068.647,8.189,8.189,0,0,1,4.2.182A9.017,9.017,0,0,1,9.074,4.461a9.034,9.034,0,0,1,2.257,3.721,8.185,8.185,0,0,1,.182,4.2.937.937,0,0,0,.653,1.069.913.913,0,0,0,.217.037.764.764,0,0,0,.794-.6,9.909,9.909,0,0,0-.22-5.074A10.955,10.955,0,0,0,10.226,3.309Z" transform="translate(50.337 -6.357) rotate(-45)"></path></g></svg> 