<svg id="Layer_1" data-name="Layer 1" xmlns="http://www.w3.org/2000/svg" viewBox="0 0 500 500.04"><defs><style>.cls-1{fill:#32327f;}.cls-1,.cls-2{fill-rule:evenodd;}.cls-2{fill:#fff;}</style></defs><title>logo-rounded</title><path class="cls-1" d="M0,86.19V413.81Q0,500,86.22,500H413.81Q500,500,500,413.81V86.19Q500,0,413.81,0H86.22Q0,0,0,86.19Z" transform="translate(0 0.02)"/><path class="cls-2" d="M124.74,103.17H239.16l-92.87,92.88a12.61,12.61,0,0,1-21.55-9Z" transform="translate(0 0.02)"/><path class="cls-2" d="M287,223.33l-99.9,99.61V283.61l85.59-85.27C281.7,189.38,308.17,202.25,287,223.33Zm-162,173.5.1-125.61c.52-12.06,6.68-22.43,17.26-31.66L278,104c85.3,6.54,106.24,94.1,45,140.71,84,30.58,64,149.8-40.49,151.41l-41.33.2L287,350.63c21.15-21.08-5.32-33.95-14.31-25L201.59,396.5Z" transform="translate(0 0.02)"/></svg>