<?xml version="1.0" encoding="UTF-8"?> <svg xmlns="http://www.w3.org/2000/svg" width="80" height="75.853" viewBox="0 0 80 75.853"><defs><style>.a{fill:#a97e63;}</style></defs><path class="a" d="M73.089,47.853V46.385H75.94a1.3,1.3,0,0,0,1.3-1.3V40.856H78.7a1.3,1.3,0,0,0,1.3-1.3V35.413a1.3,1.3,0,0,0-.653-1.125l-38.7-22.117a1.3,1.3,0,0,0-1.286,0L.653,34.288A1.3,1.3,0,0,0,0,35.413V39.56a1.3,1.3,0,0,0,1.3,1.3H2.765v4.233a1.3,1.3,0,0,0,1.3,1.3H6.911v1.469A2.679,2.679,0,0,0,8.294,50.2V74.2H4.06a1.3,1.3,0,0,0-1.3,1.3v4.233H1.3a1.3,1.3,0,0,0-1.3,1.3v5.529a1.3,1.3,0,0,0,1.3,1.3H78.7a1.3,1.3,0,0,0,1.3-1.3V81.028a1.3,1.3,0,0,0-1.3-1.3H77.235V75.5a1.3,1.3,0,0,0-1.3-1.3H71.706V50.2A2.679,2.679,0,0,0,73.089,47.853Zm-2.592,0a.086.086,0,0,1-.086.086H64.881a.086.086,0,0,1-.086-.086V46.385h5.7ZM57.883,74.2V50.2a2.679,2.679,0,0,0,1.382-2.342V46.385H62.2v1.469A2.679,2.679,0,0,0,63.585,50.2V74.2Zm-5.529,0V50.532h2.937V74.2Zm-8.294,0V50.2a2.679,2.679,0,0,0,1.382-2.342V46.385H48.38v1.469A2.679,2.679,0,0,0,49.762,50.2V74.2Zm-5.529,0V50.532h2.937V74.2Zm-8.294,0V50.2a2.679,2.679,0,0,0,1.382-2.342V46.385h2.937v1.469A2.679,2.679,0,0,0,35.94,50.2V74.2Zm-5.529,0V50.532h2.937V74.2Zm-8.294,0V50.2A2.679,2.679,0,0,0,17.8,47.853V46.385h2.937v1.469A2.679,2.679,0,0,0,22.117,50.2V74.2ZM29.028,46.385v1.469a.086.086,0,0,1-.086.086H23.413a.086.086,0,0,1-.086-.086V46.385Zm13.823,0v1.469a.086.086,0,0,1-.086.086H37.235a.086.086,0,0,1-.086-.086V46.385Zm13.823,0v1.469a.086.086,0,0,1-.086.086H51.058a.086.086,0,0,1-.086-.086V46.385ZM2.592,36.165,40,14.789,77.408,36.165v2.1H2.592Zm2.765,4.691H74.644v2.937H5.356Zm9.849,5.529v1.469a.086.086,0,0,1-.086.086H9.59a.086.086,0,0,1-.086-.086V46.385Zm-4.32,4.147h2.937V74.2H10.886Zm66.523,34.73H2.592V82.324H77.408Zm-2.765-5.529H5.356V76.8H74.644ZM66.177,74.2V50.532h2.937V74.2Z" transform="translate(0 -12)"></path></svg> 