<?xml version="1.0" encoding="UTF-8"?> <svg xmlns="http://www.w3.org/2000/svg" width="115.966" height="120.858" viewBox="0 0 115.966 120.858"><defs><style>.a{fill:#a97e63;}</style></defs><g transform="translate(14.943 -18.326) rotate(30)"><g transform="translate(48.053 38.943)"><g transform="translate(0)"><path class="a" d="M103.039,220.032l-1.157-5.4a1.368,1.368,0,0,0-2.676.574l1.157,5.4a1.368,1.368,0,1,0,2.676-.574Z" transform="translate(-99.176 -213.553)"></path></g></g><g transform="translate(52.539 36.264)"><g transform="translate(0)"><path class="a" d="M127.642,205.34l-1.157-5.4a1.368,1.368,0,0,0-2.676.574l1.157,5.4a1.368,1.368,0,1,0,2.676-.574Z" transform="translate(-123.779 -198.861)"></path></g></g><g transform="translate(57.026 33.585)"><path class="a" d="M152.244,190.648l-1.157-5.4a1.368,1.368,0,1,0-2.676.574l1.157,5.4a1.368,1.368,0,0,0,2.676-.574Z" transform="translate(-148.381 -184.169)"></path></g><g transform="translate(61.512 30.906)"><g transform="translate(0)"><path class="a" d="M176.845,175.955l-1.157-5.4a1.368,1.368,0,0,0-2.676.574l1.157,5.4a1.368,1.368,0,1,0,2.676-.574Z" transform="translate(-172.982 -169.476)"></path></g></g><g transform="translate(36.651 0)"><g transform="translate(0)"><path class="a" d="M116.457,11.2l-5.719-9.576A3.347,3.347,0,0,0,106.153.473L39.666,40.18a6.183,6.183,0,0,0-2.138,8.478L41.68,55.61c.041.07.086.136.13.2l.023.034h0a6.026,6.026,0,0,0,5.726,2.611,3.284,3.284,0,0,1,3.523,2.432L58.506,89.68a4.869,4.869,0,0,0,2.873,3.309,4.87,4.87,0,0,0,4.371-.3L78.9,84.94a4.931,4.931,0,0,0,2.263-5.456l-3.659-14.19a5.829,5.829,0,0,1,2.683-6.485l.119-.07L92.8,51.278a8.872,8.872,0,0,0,3.065-12.152l-2.784-4.663a.2.2,0,0,1,.068-.27L113.565,22a3.659,3.659,0,0,0,1.264-5.012l-1.417-2.373,2.572-1.536a1.368,1.368,0,0,0,.473-1.876Zm-15.746,9.4a1.368,1.368,0,0,0,1.877.473l8.474-5.061,1.417,2.373a.919.919,0,0,1-.317,1.259L91.749,31.844a2.934,2.934,0,0,0-1.015,4.024l2.784,4.662a6.125,6.125,0,0,1-2.118,8.4L78.906,56.39l-.087.051a8.576,8.576,0,0,0-3.962,9.536l3.659,14.19a2.182,2.182,0,0,1-1,2.414L64.361,90.326A2.172,2.172,0,0,1,61.156,89L53.733,60.207a6.033,6.033,0,0,0-6.475-4.468,3.444,3.444,0,0,1-2.042-.394L102.553,21.1l-1.368-2.37L43.439,53.218l-3.562-5.964a3.446,3.446,0,0,1,1.192-4.725L107.557,2.822a.607.607,0,0,1,.832.21l5.017,8.4-12.221,7.3A1.369,1.369,0,0,0,100.711,20.608Z" transform="translate(-36.651 0)"></path></g></g><g transform="translate(55.687 52.367)"><g transform="translate(0)"><path class="a" d="M161.705,313.527l-6.311-24.441a2.555,2.555,0,0,0-3.784-1.556l-9.323,5.568a2.57,2.57,0,0,0-1.164,2.832l6.369,24.7a2.551,2.551,0,0,0,3.771,1.564l9.06-5.334A3.013,3.013,0,0,0,161.705,313.527Zm-2.771.977-8.853,5.212-6.275-24.337,9-5.374,6.25,24.207A.264.264,0,0,1,158.934,314.5Z" transform="translate(-141.043 -287.166)"></path></g></g><g transform="translate(70.748 35.363)"><path class="a" d="M244.914,200.121l-2.849-4.77a2.934,2.934,0,0,0-4.024-1.015l-10.46,6.247a8.16,8.16,0,0,0-3.7,8.993l.289,1.122a4.333,4.333,0,0,0,4.176,3.249,4.212,4.212,0,0,0,2.135-.584l13.057-7.8A3.974,3.974,0,0,0,244.914,200.121Zm-2.776,3.093-13.013,7.772L229.1,211a1.492,1.492,0,0,1-1.339.084,1.582,1.582,0,0,1-.933-1.074l-.289-1.122a5.366,5.366,0,0,1,.2-3.284l.847.571a5.813,5.813,0,0,0,6.207.171l1.359-.811a1.368,1.368,0,1,0-1.4-2.35l-1.359.811a3.065,3.065,0,0,1-3.273-.09l-.774-.522a5.291,5.291,0,0,1,.643-.456l10.46-6.247a.192.192,0,0,1,.1-.028.209.209,0,0,1,.05.006.193.193,0,0,1,.121.09l2.849,4.771A1.234,1.234,0,0,1,242.138,203.214Z" transform="translate(-223.63 -193.919)"></path></g></g></svg> 