<?xml version="1.0" encoding="UTF-8"?> <svg xmlns="http://www.w3.org/2000/svg" width="80" height="80" viewBox="0 0 80 80"><defs><style>.a{fill:#a97e63;}</style></defs><path class="a" d="M80,55.259c0-.018,0-.036,0-.054s0-.008,0-.012c0-.029,0-.059,0-.088,0-.014,0-.029,0-.043s-.007-.051-.012-.076-.006-.036-.01-.054-.01-.039-.015-.058-.012-.047-.02-.069-.011-.03-.016-.045-.02-.053-.031-.078l0-.012L66.176,24.514V20.562h.086a2.681,2.681,0,0,0,2.678-2.678v-.205a2.667,2.667,0,0,0-2.251-2.644L44.06,11.382V9.062a5.443,5.443,0,1,0-8.121,0v2.194L13.3,15.03a2.67,2.67,0,0,0-2.238,2.642v.211a2.681,2.681,0,0,0,2.678,2.678h.086v3.952L.115,54.669l0,.012c-.011.025-.021.052-.031.078s-.011.03-.016.045-.013.046-.02.069-.011.039-.015.058-.007.036-.01.054-.009.051-.012.076,0,.029,0,.043c0,.029,0,.059,0,.088,0,0,0,.008,0,.012s0,.036,0,.054,0,.029,0,.044c.081,5.33,6.689,9.492,15.115,9.492S30.152,60.633,30.233,55.3c0-.015,0-.029,0-.044s0-.036,0-.054,0-.008,0-.012c0-.029,0-.059,0-.088,0-.014,0-.029,0-.043s-.007-.051-.012-.076-.006-.036-.01-.054-.01-.039-.015-.058-.012-.047-.02-.069-.011-.03-.016-.045-.02-.053-.031-.078l0-.012L16.414,24.514V20.562H35.939V48.716a2.679,2.679,0,0,0-1.382,2.342v19.09l-8.209,2.565A4.043,4.043,0,0,0,23.5,76.59V78.7a1.3,1.3,0,0,0,1.3,1.3H55.2a1.3,1.3,0,0,0,1.3-1.3V76.59a4.043,4.043,0,0,0-2.849-3.876l-8.209-2.565V51.058a2.679,2.679,0,0,0-1.382-2.342V20.562H63.584v3.952L49.878,54.669l0,.012c-.011.025-.021.052-.031.078s-.011.03-.016.045-.013.046-.02.069-.011.039-.015.058-.007.036-.01.054-.009.051-.012.076,0,.029,0,.043c0,.029,0,.059,0,.088,0,0,0,.008,0,.012s0,.036,0,.054,0,.029,0,.044c.081,5.33,6.689,9.491,15.115,9.491S79.915,60.633,80,55.3C80,55.289,80,55.274,80,55.259ZM15.118,27.927l11.81,25.983H3.308Zm0,34.276c-6,0-11.178-2.5-12.3-5.7h24.6C26.3,59.7,21.118,62.2,15.118,62.2ZM42.85,51.058V69.805h-5.7V51.058a.087.087,0,0,1,.086-.086h5.529A.087.087,0,0,1,42.85,51.058ZM38.53,48.38v-37.7a5.414,5.414,0,0,0,2.937,0v37.7ZM40,2.592a2.851,2.851,0,1,1-2.851,2.851A2.854,2.854,0,0,1,40,2.592ZM13.736,17.97a.087.087,0,0,1-.086-.086v-.211a.086.086,0,0,1,.072-.085l22.217-3.7V17.97ZM53.908,76.59v.818H26.09V76.59a1.462,1.462,0,0,1,1.031-1.4l8.93-2.79h7.9l8.93,2.79A1.462,1.462,0,0,1,53.908,76.59ZM44.06,14.008l22.217,3.585a.086.086,0,0,1,.073.085v.205a.087.087,0,0,1-.086.086H44.06ZM64.88,27.927,76.69,53.909H53.07Zm0,34.276c-6,0-11.178-2.5-12.3-5.7h24.6C76.058,59.7,70.881,62.2,64.88,62.2Z" transform="translate(0.001)"></path></svg> 