<?xml version="1.0" encoding="UTF-8"?> <svg xmlns="http://www.w3.org/2000/svg" width="42.837" height="19.556" viewBox="0 0 42.837 19.556"><defs><style>.a{fill:#a97e63;}</style></defs><g transform="translate(-4 -29)"><g transform="translate(4 29)"><path class="a" d="M19.831,981.362a2.808,2.808,0,0,0-2.794,2.794v13.969a2.808,2.808,0,0,0,2.794,2.794H44.043a2.808,2.808,0,0,0,2.794-2.794V984.156a2.808,2.808,0,0,0-2.794-2.794Zm0,1.862H44.043a.909.909,0,0,1,.931.931v13.969a.91.91,0,0,1-.931.931H19.831a.909.909,0,0,1-.931-.931V984.156A.909.909,0,0,1,19.831,983.224Zm-14.9,1.4a.931.931,0,1,0,0,1.862h9.312a.931.931,0,1,0,0-1.862Zm18.057.451a.931.931,0,0,0-.553,1.6l4.685,4.656-4.656,4.234a.932.932,0,1,0,1.251,1.382l4.729-4.307,1.411,1.4a2.958,2.958,0,0,0,4.147,0l1.411-1.4,4.743,4.307a.932.932,0,1,0,1.251-1.382l-4.671-4.249,4.7-4.642a.931.931,0,1,0-1.31-1.324l-7.45,7.363a1.252,1.252,0,0,1-1.513,0l-7.421-7.362a.931.931,0,0,0-.757-.276ZM6.794,990.208a.931.931,0,1,0,0,1.862h7.45a.931.931,0,1,0,0-1.862ZM8.656,995.8a.931.931,0,1,0,0,1.862h5.587a.931.931,0,1,0,0-1.862Z" transform="translate(-4 -981.362)"></path></g></g></svg> 