<?xml version="1.0" encoding="UTF-8"?> <svg xmlns="http://www.w3.org/2000/svg" width="33" height="32.996" viewBox="0 0 33 32.996"><defs><style>.a{fill:#a97e63;}</style></defs><path class="a" d="M55.024,38.109a.911.911,0,0,0,.225.029.888.888,0,0,0,.857-.659A5.559,5.559,0,0,0,49.3,30.672a.888.888,0,0,0,.23,1.745.878.878,0,0,0,.229-.03,3.824,3.824,0,0,1,1.961,0,3.783,3.783,0,0,1,2.673,4.633A.89.89,0,0,0,55.024,38.109Z" transform="translate(-32.638 -21.142)"></path><path class="a" d="M55.881,20.742A10.223,10.223,0,0,0,46,18.092a.89.89,0,0,0-.628,1.088.9.9,0,0,0,1.087.628A8.455,8.455,0,0,1,56.816,30.164a.891.891,0,0,0,.634,1.088.918.918,0,0,0,.225.029.888.888,0,0,0,.857-.66,10.217,10.217,0,0,0-2.651-9.879Z" transform="translate(-30.55 -13.075)"></path><path class="a" d="M60.956,16.049A14.9,14.9,0,0,0,42.7,5.51.887.887,0,0,0,42.076,6.6a.9.9,0,0,0,1.086.628,13.114,13.114,0,0,1,12.678,3.4A13.113,13.113,0,0,1,59.24,23.3a.888.888,0,0,0,.628,1.088.9.9,0,0,0,.23.03.888.888,0,0,0,.857-.659A14.954,14.954,0,0,0,60.956,16.049Z" transform="translate(-28.462 -5.007)"></path><path class="a" d="M30.361,35.989a4.756,4.756,0,0,0-3.032-1.305,4.889,4.889,0,0,0-2.874,1.124l-.059.044v0c-.4.308-1.259,1.1-1.266,1.11a1.006,1.006,0,0,1-.572.186.435.435,0,0,1-.078-.006c-.016,0-1.595-.5-4.749-3.612-3.09-3.139-3.593-4.713-3.593-4.714a.977.977,0,0,1,.186-.684c.336-.368.932-1.027,1.152-1.325v0c1.54-2.1,1.484-3.862-.189-5.893-1.116-1.355-2.506-2.753-4.351-2.841-1.409-.073-2.811.62-4.308,2.118A5.971,5.971,0,0,0,5.213,25.9c.112.641,1.272,6.444,7.5,12.668s12.026,7.385,12.639,7.49a6.2,6.2,0,0,0,1.632.217h0a5.81,5.81,0,0,0,4.1-1.627c1.493-1.493,2.186-2.9,2.118-4.307C33.113,38.495,31.716,37.1,30.361,35.989Zm-.532,7.4A4.018,4.018,0,0,1,26.991,44.5a4.483,4.483,0,0,1-1.195-.162c-.032-.009-.065-.017-.1-.022-.057-.009-5.749-1.022-11.733-7.005C8,31.352,6.969,25.634,6.959,25.579a.8.8,0,0,0-.021-.1,4.184,4.184,0,0,1,.945-4.035,4.382,4.382,0,0,1,2.867-1.6l.1,0c1.154.056,2.2,1.143,3.066,2.2,1.151,1.4,1.187,2.264.145,3.693l-.039.052c-.165.216-.7.817-1.016,1.156a2.688,2.688,0,0,0-.595,2.289c.044.184.525,1.9,3.794,5.278a.582.582,0,0,0,.064.075l.421.421a.364.364,0,0,0,.063.053c3.39,3.279,5.105,3.761,5.288,3.8a2.234,2.234,0,0,0,.517.058,2.713,2.713,0,0,0,1.774-.653c.35-.322.978-.887,1.177-1.031a3.132,3.132,0,0,1,1.818-.772,3.083,3.083,0,0,1,1.905.894c1.055.868,2.142,1.911,2.2,3.065C31.471,41.3,30.948,42.272,29.828,43.392Z" transform="translate(-5 -13.279)"></path></svg> 