<?xml version="1.0" encoding="UTF-8"?> <svg xmlns="http://www.w3.org/2000/svg" width="80" height="73.089" viewBox="0 0 80 73.089"><defs><style>.a{fill:#fff;}</style></defs><path class="a" d="M73.175,33.823H53.736V29.851a4.058,4.058,0,0,0,.08-7.666A41.38,41.38,0,0,0,40,20a41.38,41.38,0,0,0-13.817,2.185,4.058,4.058,0,0,0,.08,7.666v3.972H6.825A6.833,6.833,0,0,0,0,40.648V86.264a6.833,6.833,0,0,0,6.825,6.825h66.35A6.833,6.833,0,0,0,80,86.264V40.648A6.833,6.833,0,0,0,73.175,33.823Zm-46.113-9.2A38.773,38.773,0,0,1,40,22.592a38.775,38.775,0,0,1,12.938,2.032,1.469,1.469,0,1,1-1,2.764A36.338,36.338,0,0,0,40,25.529a36.336,36.336,0,0,0-11.943,1.858,1.469,1.469,0,1,1-1-2.764Zm1.793,5.229.08-.027A33.7,33.7,0,0,1,40,28.121a33.7,33.7,0,0,1,11.065,1.705c.026.01.054.016.08.025v3.972H28.855ZM2.592,40.648a4.238,4.238,0,0,1,4.233-4.233h66.35a4.238,4.238,0,0,1,4.233,4.233V53.089A15.309,15.309,0,0,1,62.117,68.38H45.443V66.911a4.065,4.065,0,0,0-4.06-4.06H38.618a4.065,4.065,0,0,0-4.06,4.06V68.38H17.883A15.309,15.309,0,0,1,2.592,53.089ZM42.851,69.676a1.47,1.47,0,0,1-1.469,1.469H38.618a1.47,1.47,0,0,1-1.469-1.469V66.911a1.47,1.47,0,0,1,1.469-1.469h2.765a1.47,1.47,0,0,1,1.469,1.469Zm-5.7,3.785a4.039,4.039,0,0,0,1.469.276h2.765a4.039,4.039,0,0,0,1.469-.276v1.745a1.47,1.47,0,0,1-1.469,1.469H38.618a1.47,1.47,0,0,1-1.469-1.469Zm40.259,12.8A4.238,4.238,0,0,1,73.175,90.5H6.825a4.238,4.238,0,0,1-4.233-4.233V62.353a17.89,17.89,0,0,0,15.292,8.619H34.557v4.233a4.065,4.065,0,0,0,4.06,4.06h2.765a4.065,4.065,0,0,0,4.06-4.06V70.972H62.117a17.89,17.89,0,0,0,15.292-8.619Z" transform="translate(0 -20)"></path></svg> 