<svg id="Layer_1" data-name="Layer 1" xmlns="http://www.w3.org/2000/svg" viewBox="0 0 500 500.04"><defs><style>.cls-1{fill:#fff;}.cls-1,.cls-2{fill-rule:evenodd;}.cls-2{fill:#32327f;}</style></defs><title>logo-rounded-dark</title><path class="cls-1" d="M0,86.19V413.81Q0,500,86.22,500H413.81Q500,500,500,413.81V86.19Q500,0,413.81,0H86.22Q0,0,0,86.19Z" transform="translate(0 0.02)"/><path class="cls-2" d="M124.74,103.17H239.16l-92.87,92.88a12.61,12.61,0,0,1-21.55-9Z" transform="translate(0 0.02)"/><path class="cls-2" d="M323,244.68c61.22-46.61,40.28-134.17-45-140.71L142.42,239.56c-10.58,9.23-16.74,19.6-17.26,31.66l-.1,125.61,76.53-.33,71.12-70.86c9-9,35.46,3.91,14.31,25l-45.8,45.66,41.33-.2C387,394.48,407.05,275.26,323,244.68Zm-36-21.35-99.9,99.61V283.61l85.59-85.27C281.7,189.38,308.17,202.25,287,223.33Z" transform="translate(0 0.02)"/></svg>